# xmcd
#
# Track frame offsets: 
#        150
#        11832
#        22700
#        33917
#        46942
#        59472
#        73192
#        84275
#        96392
#        110280
#        120962
#        133535
#        147497
#        160315
#        175270
#        187680
#        200002
#        212200
#        223760
#        236437
#        249067
#        262885
#        276490
#        290100
#        300845
#
# Disc length: 4188 seconds
#
# Revision: 0
# Processed by: cddbd v1.5.2PL0 Copyright (c) Steve Scherf et al.
# Submitted via: ExactAudioCopy v0.99pb4
#
DISCID=60105a19
DTITLE=Various Artist - Let Me Be Your Sidetrack CD 1
DYEAR=2008
DGENRE=Country
TTITLE0=Rex Griffin - Sweet Mama Hurry Home
TTITLE1=W. Lee O'Daniel and His Hillbilly Boys - Yodeling Ranger
TTITLE2=Gene Autry - Hobo Bill's Last Ride
TTITLE3=Bill Boyd - The Wind Swept Desert (Desert Blues)
TTITLE4=Buddy Jones - Any Old Time
TTITLE5=The Callahan Brothers - T.B. Blues. No 2 (T.B. Blues)
TTITLE6=The Monroe Brothers - In My Dear Old Southern Home (Dear Old S
TTITLE6=unny South By The Sea)
TTITLE7=Red River Dave (Dave McEnery) - Daddy And Home
TTITLE8=Cliff Carlisle - Blue Yodel No. 6
TTITLE9=Bob Wills and His Texas Playboys - Never No More Hard Times Blue
TTITLE9=s (No Hard Times)
TTITLE10=Gene Autry - Blue Yodel No. 5
TTITLE11=The Sons Of The Pioneers - The Yodeling Cowboy
TTITLE12=Roy Acuff and His Smokey Mountain Boys - Mule Skinner Blues (Bl
TTITLE12=ue Yodel #8)
TTITLE13=Darby and Tarlton - Once I Had A Sweetheart (Soldier's Sweethea
TTITLE13=rt)
TTITLE14=The Nite Owls - Frankie And Johnny (You'll Miss Me In The Day
TTITLE14=s To Come)
TTITLE15=Hank, The Yodeling Ranger - Polka Dot Blues (Gambling Polka D
TTITLE15=ot Blues)
TTITLE16=The Shelton Brothers - She Was Happy Till She Met You
TTITLE17=Dwight Butcher - Nobody Knows But Me
TTITLE18=Bob Wills and His Texas Playboys - Mississippi Delta Blues
TTITLE19=Doc Hopkins - Mother The Queen Of My Heart
TTITLE20=Brown's Musical Brownies - The One Rose (That's Left In My He
TTITLE20=art)
TTITLE21=Bill Cox - California Blues (Blue Yodel No. 4)
TTITLE22=Gene Autry - High Powered Mama
TTITLE23=Lummie Lewis and His Merrymakers - Travelin' Blues
TTITLE24=Harry Hillard - I'm Looking For A Brand New Mama (Looking For
TTITLE24=A New Mama)
EXTD=
EXTT0=
EXTT1=
EXTT2=
EXTT3=
EXTT4=
EXTT5=
EXTT6=
EXTT7=
EXTT8=
EXTT9=
EXTT10=
EXTT11=
EXTT12=
EXTT13=
EXTT14=
EXTT15=
EXTT16=
EXTT17=
EXTT18=
EXTT19=
EXTT20=
EXTT21=
EXTT22=
EXTT23=
EXTT24=
PLAYORDER=
